Coordinates
version=1
nRows=22
nColumns=24
inDegrees=yes

Units are S.I. units (second, meters, Newtons, ...)
Angles are in degrees.

endheader
time	pelvis_tilt	pelvis_list	pelvis_rotation	pelvis_tx	pelvis_ty	pelvis_tz	hip_flexion_r	hip_adduction_r	hip_rotation_r	knee_angle_r	ankle_angle_r	subtalar_angle_r	mtp_angle_r	hip_flexion_l	hip_adduction_l	hip_rotation_l	knee_angle_l	ankle_angle_l	subtalar_angle_l	mtp_angle_l	lumbar_extension	lumbar_bending	lumbar_rotation
      4.62000000	     35.09181807	      5.61085074	      8.98666730	      0.66462140	      0.67437263	     -0.25112904	    -31.73656702	      2.91026452	     -8.87563385	    -12.05728334	     19.31443060	      3.42160139	      0.00000000	    -21.96152687	     -4.97303797	     -8.16928125	    -66.39629786	      6.26991605	     -4.33048856	      0.00000000	    -61.85287165	      2.60234912	     -5.04682606
      4.62500000	     34.98358208	      5.79206972	      8.57234343	      0.67152998	      0.67491974	     -0.25103346	    -32.64463788	      2.63800547	     -8.69027174	    -11.36770311	     19.51462792	      3.62532913	      0.00000000	    -20.90384804	     -4.39223348	     -8.65383285	    -65.94660410	      7.18010389	     -3.55358489	      0.00000000	    -61.83318640	      2.17425504	     -4.94804745
      4.63000000	     34.85176740	      5.97584343	      8.18485408	      0.67839311	      0.67534749	     -0.25092085	    -33.50205668	      2.36972928	     -8.58803953	    -10.71166136	     19.67207336	      3.77168926	      0.00000000	    -19.82101479	     -3.82631810	     -9.12335441	    -65.41031542	      7.99832978	     -2.79712226	      0.00000000	    -61.81257753	      1.72991109	     -4.83657794
      4.63500000	     34.77980885	      6.10049716	      7.74756856	      0.68526683	      0.67567507	     -0.25091086	    -34.40153536	      2.11328985	     -8.37684888	    -10.07927502	     19.90573753	      4.01321293	      0.00000000	    -18.83762288	     -3.29758257	     -9.62533718	    -64.76693164	      8.76640651	     -1.93118993	      0.00000000	    -61.82387554	      1.36499881	     -4.67008087
      4.64000000	     34.69496630	      6.21951758	      7.34026694	      0.69208910	      0.67589048	     -0.25088613	    -35.26307758	      1.87304643	     -8.24624546	     -9.47504493	     20.10209664	      4.20461479	      0.00000000	    -17.84277211	     -2.79733138	    -10.10996749	    -64.03778312	      9.45088051	     -1.12813636	      0.00000000	    -61.84458020	      0.99195393	     -4.47678102
      4.64500000	     34.74581864	      6.28077991	      6.79891750	      0.69886492	      0.67608301	     -0.25084739	    -36.22956237	      1.60443529	     -8.04151553	     -8.91106625	     20.29405632	      4.48350746	      0.00000000	    -17.06346742	     -2.32744645	    -10.72491499	    -63.14556404	     10.11462392	     -0.37325007	      0.00000000	    -62.00917415	      0.58846332	     -4.09784439
      4.65000000	     34.60250367	      6.37267053	      6.50837635	      0.70562243	      0.67603049	     -0.25090147	    -36.98702668	      1.43688055	     -8.02427061	     -8.37077299	     20.49643270	      4.60608293	      0.00000000	    -15.99534678	     -1.90132700	    -11.07988083	    -62.28539219	     10.62900716	      0.42149255	      0.00000000	    -61.98938448	      0.31105794	     -3.96123699
      4.65500000	     34.51466619	      6.40562521	      6.18092650	      0.71233779	      0.67589688	     -0.25099898	    -37.76916613	      1.29040514	     -8.01901607	     -7.87165544	     20.71838145	      4.84278682	      0.00000000	    -15.02285716	     -1.52819284	    -11.46527391	    -61.31452156	     11.14407792	      1.20402067	      0.00000000	    -62.02715919	      0.07166941	     -3.71810605
      4.66000000	     34.45374422	      6.41713113	      5.85499139	      0.71901657	      0.67566652	     -0.25104516	    -38.56288718	      1.16957676	     -8.02365575	     -7.39128489	     20.93723612	      5.09491871	      0.00000000	    -14.09809450	     -1.19582033	    -11.84040394	    -60.25723254	     11.61825295	      1.92287588	      0.00000000	    -62.11380445	     -0.18557626	     -3.43429882
      4.66500000	     34.48447828	      6.40265985	      5.46303016	      0.72569703	      0.67542928	     -0.25121691	    -39.43452509	      1.01547448	     -8.00505641	     -6.94846502	     21.14732936	      5.40252756	      0.00000000	    -13.34350961	     -0.85192502	    -12.23392231	    -59.03048977	     12.02294273	      2.56830347	      0.00000000	    -62.27596229	     -0.41103104	     -3.04109073
      4.67000000	     34.36864728	      6.37214071	      5.25728126	      0.73234794	      0.67497147	     -0.25137120	    -40.13827785	      0.99513807	     -8.09938032	     -6.52644961	     21.34736329	      5.54699976	      0.00000000	    -12.38086908	     -0.59706928	    -12.45724195	    -57.81920967	     12.36068929	      3.24636904	      0.00000000	    -62.30834799	     -0.54266408	     -2.79929858
      4.67500000	     34.30458261	      6.30554462	      5.01999554	      0.73898570	      0.67445759	     -0.25156513	    -40.87969245	      0.97951417	     -8.20853878	     -6.13133204	     21.57013840	      5.81126508	      0.00000000	    -11.52460634	     -0.36935990	    -12.68937885	    -56.48448761	     12.70125656	      3.87235495	      0.00000000	    -62.39510185	     -0.65987038	     -2.47881035
      4.68000000	     34.26158786	      6.22684961	      4.78989525	      0.74562050	      0.67387833	     -0.25176489	    -41.63396006	      0.98044690	     -8.33888098	     -5.75650836	     21.78279768	      6.06856110	      0.00000000	    -10.73304988	     -0.16031580	    -12.89272384	    -55.03560828	     13.00577322	      4.44002040	      0.00000000	    -62.50446312	     -0.76488499	     -2.13953134
      4.68500000	     34.22560854	      6.13425964	      4.58182335	      0.75224785	      0.67322393	     -0.25198695	    -42.38801997	      1.00706816	     -8.49202186	     -5.39895232	     21.98313892	      6.31037410	      0.00000000	     -9.98616168	      0.02728885	    -13.05722067	    -53.48355745	     13.28534265	      4.95346368	      0.00000000	    -62.62738664	     -0.84747284	     -1.79215547
      4.69000000	     34.18728869	      6.02891324	      4.40446479	      0.75888705	      0.67249894	     -0.25222264	    -43.13681166	      1.06601046	     -8.66014624	     -5.05412738	     22.17304550	      6.54207259	      0.00000000	     -9.27936533	      0.19279033	    -13.17675799	    -51.82379264	     13.53921266	      5.43019387	      0.00000000	    -62.74036366	     -0.91241691	     -1.44326634
      4.69500000	     34.06683679	      5.88407052	      4.35191345	      0.76548638	      0.67161739	     -0.25258913	    -43.78203174	      1.23379483	     -8.79922894	     -4.73630745	     22.30315486	      6.56807992	      0.00000000	     -8.47702537	      0.32139510	    -13.13938141	    -50.12116700	     13.80173393	      5.66700684	      0.00000000	    -62.78270085	     -0.85557381	     -1.09769531
      4.70000000	     34.19840976	      5.81069573	      4.03175112	      0.77220850	      0.67090029	     -0.25268177	    -44.72330157	      1.18097537	     -9.06267004	     -4.39959765	     22.55924056	      7.08781430	      0.00000000	     -8.14164997	      0.51025245	    -13.39523651	    -48.12380290	     14.04616359	      6.21249337	      0.00000000	    -63.05605591	     -1.05331684	     -0.75045870
      4.70500000	     34.04165036	      5.65917510	      4.02965548	      0.77884997	      0.66990536	     -0.25303388	    -45.32525468	      1.38868135	     -9.22904578	     -4.10830046	     22.62578199	      7.08071912	      0.00000000	     -7.40361523	      0.60661411	    -13.30235508	    -46.20110712	     14.21352947	      6.52931260	      0.00000000	    -63.05723291	     -0.99134392	     -0.39812399
      4.71000000	     34.13847458	      5.58623512	      3.78055341	      0.78560899	      0.66906044	     -0.25313743	    -46.23036197	      1.38267353	     -9.49134227	     -3.79090723	     22.82011940	      7.49387632	      0.00000000	     -7.13362864	      0.77495055	    -13.50211078	    -43.99137990	     14.38609561	      7.04826360	      0.00000000	    -63.29132879	     -1.16076914	     -0.07723266
      4.71500000	     33.96489356	      5.42199979	      3.79633702	      0.79236754	      0.66795129	     -0.25341948	    -46.82536537	      1.61813441	     -9.69008667	     -3.50392493	     22.89222554	      7.52580722	      0.00000000	     -6.51428722	      0.82606486	    -13.44856510	    -41.84100101	     14.52939803	      7.46672270	      0.00000000	    -63.24010841	     -1.11220860	      0.24484641
      4.72000000	     33.90010885	      5.31120123	      3.68703699	      0.79916613	      0.66690841	     -0.25361878	    -47.52454922	      1.71338483	     -9.89702708	     -3.26940715	     23.03191373	      7.83324862	      0.00000000	     -6.14869925	      0.93427230	    -13.55607461	    -39.48423896	     14.65486940	      8.10725585	      0.00000000	    -63.31746892	     -1.17677839	      0.51797503
      4.72500000	     33.85613079	      5.19702108	      3.57946228	      0.80606571	      0.66583792	     -0.25382690	    -48.26997264	      1.81471009	    -10.07134979	     -3.00738217	     23.10520526	      8.04201756	      0.00000000	     -5.88744368	      1.04313151	    -13.68232062	    -37.01356628	     14.71960140	      8.66588306	      0.00000000	    -63.36862535	     -1.25735924	      0.84840094
